<svg width="24" height="24" viewBox="0 0 24 24" fill="none" xmlns="http://www.w3.org/2000/svg">
<path d="M16.185 19.368L13.764 16.9455C12.8278 17.2802 11.8157 17.3422 10.8456 17.1243C9.87554 16.9063 8.98729 16.4173 8.28423 15.7143C7.58117 15.0112 7.09221 14.123 6.87424 13.1529C6.65628 12.1828 6.71827 11.1707 7.053 10.2345L3.963 7.1445C1.407 9.417 0 12 0 12C0 12 4.5 20.25 12 20.25C13.4406 20.245 14.8649 19.9448 16.185 19.368V19.368ZM7.815 4.632C9.13508 4.05514 10.5594 3.75496 12 3.75C19.5 3.75 24 12 24 12C24 12 22.5915 14.5815 20.0385 16.857L16.9455 13.764C17.2802 12.8278 17.3422 11.8157 17.1243 10.8456C16.9063 9.87554 16.4173 8.98729 15.7143 8.28423C15.0112 7.58117 14.123 7.09221 13.1529 6.87424C12.1828 6.65628 11.1707 6.71827 10.2345 7.053L7.815 4.6335V4.632Z" fill="#A8A8A8"/>
<path d="M8.28774 11.4688C8.20523 12.0452 8.25811 12.633 8.44218 13.1855C8.62626 13.7379 8.93648 14.24 9.34826 14.6517C9.76003 15.0635 10.2621 15.3737 10.8145 15.5578C11.367 15.7419 11.9548 15.7948 12.5312 15.7123L8.28624 11.4688H8.28774ZM15.7127 12.5308L11.4692 8.28575C12.0457 8.20324 12.6335 8.25612 13.1859 8.44019C13.7384 8.62427 14.2404 8.93449 14.6522 9.34627C15.064 9.75804 15.3742 10.2601 15.5583 10.8125C15.7424 11.365 15.7953 11.9528 15.7127 12.5292V12.5308ZM20.4692 21.5308L2.46924 3.53075L3.53124 2.46875L21.5312 20.4688L20.4692 21.5308Z" fill="#A8A8A8"/>
</svg>
